ply
format ascii 1.0
element vertex 75
property float32 x
property float32 y
property float32 z
element face 1
property list uchar uint vertex_indices
end_header
0.01 -1.0 0.0
0.02 -1.0 0.0
0.03 -1.0 0.0
0.04 -1.0 0.0
0.05 -0.99 0.0
0.06 -0.98 0.0
0.07 -0.97 0.0
0.08 -0.96 0.0
0.09 -0.95 0.0
0.10 -0.94 0.0
0.11 -0.93 0.0
0.12 -0.92 0.0
0.13 -0.91 0.0
0.14 -0.90 0.0
0.15 -0.89 0.0
0.16 -0.88 0.0
0.17 -0.87 0.0
0.18 -0.86 0.0
0.19 -0.85 0.0
0.20 -0.83 0.0
0.21 -0.82 0.0
0.22 -0.81 0.0
0.23 -0.80 0.0
0.24 -0.79 0.0
0.25 -0.78 0.0
0.24 -0.77 0.0
0.23 -0.76 0.0
0.22 -0.75 0.0
0.21 -0.74 0.0
0.20 -0.73 0.0
0.20 -0.65 0.0
0.22 -0.62 0.0
0.24 -0.54 0.0
0.26 -0.53 0.0
0.28 -0.52 0.0
0.30 -0.51 0.0
0.32 -0.50 0.0
0.34 -0.49 0.0
0.36 -0.48 0.0
0.38 -0.47 0.0
0.40 -0.46 0.0
0.42 -0.45 0.0
0.44 -0.44 0.0
0.46 -0.43 0.0
0.48 -0.42 0.0
0.50 -0.41 0.0
0.52 -0.40 0.0
0.53 -0.38 0.0
0.54 -0.36 0.0
0.55 -0.32 0.0
0.56 -0.30 0.0
0.57 -0.28 0.0
0.58 -0.26 0.0
0.59 -0.24 0.0
0.60 -0.22 0.0
0.61 -0.20 0.0
0.62 -0.18 0.0
0.63 -0.16 0.0
0.625 -0.155 0.0
0.622 -0.15 0.0
0.615 -0.145 0.0
0.61 -0.14 0.0
0.615 -0.13 0.0
0.622 -0.11 0.0
0.625 -0.09 0.0
0.63 -0.07 0.0
0.625 -0.065 0.0
0.62 -0.06 0.0
0.617 -0.055 0.0
0.615 -0.05 0.0
0.617 -0.045 0.0
0.62 -0.04 0.0
0.625 -0.035 0.0
0.63 -0.03 0.0
0.635 -0.025 0.0






3 0 1 2